<?xml version="1.0" standalone="no"?>
<!DOCTYPE svg PUBLIC "-//W3C//DTD SVG 20010904//EN"
 "http://www.w3.org/TR/2001/REC-SVG-20010904/DTD/svg10.dtd">
<svg version="1.0" xmlns="http://www.w3.org/2000/svg"
 width="224.000000pt" height="226.000000pt" viewBox="0 0 224.000000 226.000000"
 preserveAspectRatio="xMidYMid meet">

<g transform="translate(0.000000,226.000000) scale(0.100000,-0.100000)"
fill="#000000" stroke="none">
<path d="M927 2225 c-230 -44 -434 -151 -597 -315 -430 -431 -430 -1125 0
-1560 213 -216 486 -330 789 -330 58 0 134 5 168 10 543 88 942 551 945 1093
1 243 -80 482 -230 682 -147 195 -364 340 -600 402 -124 32 -353 41 -475 18z
m418 -144 c371 -89 650 -375 731 -749 20 -93 23 -290 5 -380 -59 -305 -260
-571 -526 -697 -160 -76 -359 -112 -528 -94 -145 15 -337 74 -337 104 0 23
121 348 158 424 75 154 185 235 387 285 198 49 320 66 481 66 162 0 244 11
266 37 19 23 -18 48 -126 82 -157 50 -214 82 -282 158 -35 39 -84 81 -115 98
-47 26 -64 30 -129 29 -107 0 -175 -32 -422 -196 -274 -183 -365 -228 -504
-247 -73 -11 -113 -7 -196 16 -57 16 -57 16 -64 60 -23 152 53 430 161 593
161 243 428 404 720 434 76 8 240 -4 320 -23z m123 -757 c45 -32 17 -114 -40
-114 -27 0 -30 2 -24 25 5 20 3 25 -14 25 -14 0 -20 7 -20 21 0 18 -4 21 -29
16 -37 -8 -52 19 -18 33 37 15 120 11 145 -6z m206 -130 c9 -8 16 -20 16 -26
0 -6 11 -8 26 -4 17 5 45 -1 78 -13 28 -12 70 -25 94 -31 42 -11 56 -33 27
-43 -54 -21 -279 -15 -317 9 -4 3 1 17 12 31 11 14 20 41 20 59 0 38 18 45 44
18z"/>
</g>
</svg>
